<?xml version="1.0" encoding="utf-8"?>
<!-- Generator: Adobe Illustrator 27.1.1, SVG Export Plug-In . SVG Version: 6.00 Build 0)  -->
<svg version="1.1" id="Capa_1" xmlns="http://www.w3.org/2000/svg" xmlns:xlink="http://www.w3.org/1999/xlink" x="0px" y="0px"
	 viewBox="0 0 32 32" enable-background="new 0 0 32 32" xml:space="preserve">
<g>
	<circle fill="#FFFFFF" cx="16" cy="16" r="16"/>
	<g>
		<g>
			<path fill="#6600CC" d="M13.4,3.5c-2.5,0-3.3,1.4-3.3,4.2v3.6c0,2.6-1.5,4.2-3.2,4.7c1.9,0.5,3.2,2,3.2,4.6v3.7
				c0,2.8,0.9,4.2,3.3,4.2V3.5z"/>
		</g>
		<g>
			<path fill="#FF00FF" d="M15.1,23.8c1,1.1,2.5,1.3,4.2,1.3c3.9,0,5.8-3,5.8-5.8v0c0-1.8-0.7-3.4-2-4.4c0,0-1.9-1.4-3.7-1.4
				c0,0,3.3,1.6,2.5,2.2L16,23V6.8h-1.6l0.7,0.3V23.8z"/>
		</g>
	</g>
</g>
</svg>
